%TF.GenerationSoftware,KiCad,Pcbnew,6.0.4-6f826c9f35~116~ubuntu20.04.1*%
%TF.CreationDate,2022-04-05T11:11:21+02:00*%
%TF.ProjectId,canbrd,63616e62-7264-42e6-9b69-6361645f7063,1.1*%
%TF.SameCoordinates,Original*%
%TF.FileFunction,Soldermask,Top*%
%TF.FilePolarity,Negative*%
%FSLAX46Y46*%
G04 Gerber Fmt 4.6, Leading zero omitted, Abs format (unit mm)*
G04 Created by KiCad (PCBNEW 6.0.4-6f826c9f35~116~ubuntu20.04.1) date 2022-04-05 11:11:21*
%MOMM*%
%LPD*%
G01*
G04 APERTURE LIST*
G04 Aperture macros list*
%AMRoundRect*
0 Rectangle with rounded corners*
0 $1 Rounding radius*
0 $2 $3 $4 $5 $6 $7 $8 $9 X,Y pos of 4 corners*
0 Add a 4 corners polygon primitive as box body*
4,1,4,$2,$3,$4,$5,$6,$7,$8,$9,$2,$3,0*
0 Add four circle primitives for the rounded corners*
1,1,$1+$1,$2,$3*
1,1,$1+$1,$4,$5*
1,1,$1+$1,$6,$7*
1,1,$1+$1,$8,$9*
0 Add four rect primitives between the rounded corners*
20,1,$1+$1,$2,$3,$4,$5,0*
20,1,$1+$1,$4,$5,$6,$7,0*
20,1,$1+$1,$6,$7,$8,$9,0*
20,1,$1+$1,$8,$9,$2,$3,0*%
%AMRotRect*
0 Rectangle, with rotation*
0 The origin of the aperture is its center*
0 $1 length*
0 $2 width*
0 $3 Rotation angle, in degrees counterclockwise*
0 Add horizontal line*
21,1,$1,$2,0,0,$3*%
%AMFreePoly0*
4,1,6,1.000000,0.000000,0.500000,-0.750000,-0.500000,-0.750000,-0.500000,0.750000,0.500000,0.750000,1.000000,0.000000,1.000000,0.000000,$1*%
%AMFreePoly1*
4,1,6,0.500000,-0.750000,-0.650000,-0.750000,-0.150000,0.000000,-0.650000,0.750000,0.500000,0.750000,0.500000,-0.750000,0.500000,-0.750000,$1*%
G04 Aperture macros list end*
%ADD10C,0.010000*%
%ADD11R,0.800000X1.500000*%
%ADD12R,1.450000X2.000000*%
%ADD13RoundRect,0.200000X-0.275000X0.200000X-0.275000X-0.200000X0.275000X-0.200000X0.275000X0.200000X0*%
%ADD14RoundRect,0.150000X-0.150000X0.587500X-0.150000X-0.587500X0.150000X-0.587500X0.150000X0.587500X0*%
%ADD15RoundRect,0.200000X0.200000X0.275000X-0.200000X0.275000X-0.200000X-0.275000X0.200000X-0.275000X0*%
%ADD16RoundRect,0.250000X0.250000X0.475000X-0.250000X0.475000X-0.250000X-0.475000X0.250000X-0.475000X0*%
%ADD17RoundRect,0.225000X-0.225000X-0.250000X0.225000X-0.250000X0.225000X0.250000X-0.225000X0.250000X0*%
%ADD18RoundRect,0.250000X0.375000X0.625000X-0.375000X0.625000X-0.375000X-0.625000X0.375000X-0.625000X0*%
%ADD19RoundRect,0.225000X0.225000X0.250000X-0.225000X0.250000X-0.225000X-0.250000X0.225000X-0.250000X0*%
%ADD20RoundRect,0.225000X-0.250000X0.225000X-0.250000X-0.225000X0.250000X-0.225000X0.250000X0.225000X0*%
%ADD21RoundRect,0.235000X-0.940000X-1.465000X0.940000X-1.465000X0.940000X1.465000X-0.940000X1.465000X0*%
%ADD22R,1.200000X1.400000*%
%ADD23RoundRect,0.150000X0.150000X-0.587500X0.150000X0.587500X-0.150000X0.587500X-0.150000X-0.587500X0*%
%ADD24RoundRect,0.200000X-0.200000X-0.275000X0.200000X-0.275000X0.200000X0.275000X-0.200000X0.275000X0*%
%ADD25C,2.400000*%
%ADD26RoundRect,0.150000X0.150000X-0.825000X0.150000X0.825000X-0.150000X0.825000X-0.150000X-0.825000X0*%
%ADD27R,1.000000X0.700000*%
%ADD28RoundRect,0.150000X-0.825000X-0.150000X0.825000X-0.150000X0.825000X0.150000X-0.825000X0.150000X0*%
%ADD29RoundRect,0.250000X-0.325000X-0.650000X0.325000X-0.650000X0.325000X0.650000X-0.325000X0.650000X0*%
%ADD30RoundRect,0.250000X-0.475000X0.250000X-0.475000X-0.250000X0.475000X-0.250000X0.475000X0.250000X0*%
%ADD31RoundRect,0.225000X0.250000X-0.225000X0.250000X0.225000X-0.250000X0.225000X-0.250000X-0.225000X0*%
%ADD32C,0.800000*%
%ADD33C,6.400000*%
%ADD34R,0.500000X0.800000*%
%ADD35R,0.400000X0.800000*%
%ADD36RoundRect,0.250000X-1.750000X-1.000000X1.750000X-1.000000X1.750000X1.000000X-1.750000X1.000000X0*%
%ADD37R,1.400000X1.200000*%
%ADD38RoundRect,0.250000X-0.250000X-0.475000X0.250000X-0.475000X0.250000X0.475000X-0.250000X0.475000X0*%
%ADD39R,0.740000X2.400000*%
%ADD40RoundRect,0.175000X0.325000X0.175000X-0.325000X0.175000X-0.325000X-0.175000X0.325000X-0.175000X0*%
%ADD41R,1.500000X4.000000*%
%ADD42R,2.300000X2.500000*%
%ADD43RoundRect,0.250000X0.475000X-0.250000X0.475000X0.250000X-0.475000X0.250000X-0.475000X-0.250000X0*%
%ADD44RoundRect,0.250000X-0.312500X-0.625000X0.312500X-0.625000X0.312500X0.625000X-0.312500X0.625000X0*%
%ADD45RoundRect,0.150000X0.825000X0.150000X-0.825000X0.150000X-0.825000X-0.150000X0.825000X-0.150000X0*%
%ADD46FreePoly0,180.000000*%
%ADD47FreePoly1,180.000000*%
%ADD48R,3.000000X2.000000*%
%ADD49R,0.760000X1.270000*%
%ADD50RoundRect,0.150000X-0.587500X-0.150000X0.587500X-0.150000X0.587500X0.150000X-0.587500X0.150000X0*%
%ADD51R,0.900000X1.200000*%
%ADD52R,2.500000X2.300000*%
%ADD53O,0.580000X1.000000*%
%ADD54C,0.660000*%
%ADD55R,0.890000X0.300000*%
%ADD56C,1.100000*%
%ADD57RotRect,1.030000X0.500000X51.000000*%
%ADD58RotRect,1.030000X0.500000X129.000000*%
%ADD59RoundRect,0.200000X0.275000X-0.200000X0.275000X0.200000X-0.275000X0.200000X-0.275000X-0.200000X0*%
%ADD60R,1.200000X0.900000*%
%ADD61RoundRect,0.250001X-0.799999X-2.474999X0.799999X-2.474999X0.799999X2.474999X-0.799999X2.474999X0*%
%ADD62RoundRect,0.381000X-1.869000X-1.524000X1.869000X-1.524000X1.869000X1.524000X-1.869000X1.524000X0*%
%ADD63R,0.400000X0.650000*%
%ADD64C,3.250000*%
%ADD65R,1.500000X1.500000*%
%ADD66C,1.500000*%
%ADD67C,2.300000*%
%ADD68R,0.700000X1.000000*%
%ADD69R,0.300000X0.650000*%
%ADD70R,0.650000X0.300000*%
%ADD71R,2.850000X2.850000*%
%ADD72RoundRect,0.243750X-0.243750X-0.456250X0.243750X-0.456250X0.243750X0.456250X-0.243750X0.456250X0*%
%ADD73RoundRect,0.150000X-0.150000X0.875000X-0.150000X-0.875000X0.150000X-0.875000X0.150000X0.875000X0*%
%ADD74RoundRect,0.050000X-0.050000X0.387500X-0.050000X-0.387500X0.050000X-0.387500X0.050000X0.387500X0*%
%ADD75RoundRect,0.050000X-0.387500X0.050000X-0.387500X-0.050000X0.387500X-0.050000X0.387500X0.050000X0*%
%ADD76RoundRect,0.144000X-1.456000X1.456000X-1.456000X-1.456000X1.456000X-1.456000X1.456000X1.456000X0*%
G04 APERTURE END LIST*
%TO.C,D1*%
G36*
X125500070Y-72400017D02*
G01*
X122100000Y-72400017D01*
X122100000Y-71600000D01*
X125500070Y-71600000D01*
X125500070Y-72400017D01*
G37*
D10*
X125500070Y-72400017D02*
X122100000Y-72400017D01*
X122100000Y-71600000D01*
X125500070Y-71600000D01*
X125500070Y-72400017D01*
G36*
X125501170Y-70899240D02*
G01*
X122100000Y-70899240D01*
X122100000Y-69050000D01*
X125501170Y-69050000D01*
X125501170Y-70899240D01*
G37*
X125501170Y-70899240D02*
X122100000Y-70899240D01*
X122100000Y-69050000D01*
X125501170Y-69050000D01*
X125501170Y-70899240D01*
G36*
X125501410Y-74952440D02*
G01*
X122100000Y-74952440D01*
X122100000Y-73100000D01*
X125501410Y-73100000D01*
X125501410Y-74952440D01*
G37*
X125501410Y-74952440D02*
X122100000Y-74952440D01*
X122100000Y-73100000D01*
X125501410Y-73100000D01*
X125501410Y-74952440D01*
%TO.C,D2*%
G36*
X130701410Y-74952440D02*
G01*
X127300000Y-74952440D01*
X127300000Y-73100000D01*
X130701410Y-73100000D01*
X130701410Y-74952440D01*
G37*
X130701410Y-74952440D02*
X127300000Y-74952440D01*
X127300000Y-73100000D01*
X130701410Y-73100000D01*
X130701410Y-74952440D01*
G36*
X130701170Y-70899240D02*
G01*
X127300000Y-70899240D01*
X127300000Y-69050000D01*
X130701170Y-69050000D01*
X130701170Y-70899240D01*
G37*
X130701170Y-70899240D02*
X127300000Y-70899240D01*
X127300000Y-69050000D01*
X130701170Y-69050000D01*
X130701170Y-70899240D01*
G36*
X130700070Y-72400017D02*
G01*
X127300000Y-72400017D01*
X127300000Y-71600000D01*
X130700070Y-71600000D01*
X130700070Y-72400017D01*
G37*
X130700070Y-72400017D02*
X127300000Y-72400017D01*
X127300000Y-71600000D01*
X130700070Y-71600000D01*
X130700070Y-72400017D01*
%TD*%
D11*
%TO.C,J2*%
X156800000Y-79000000D03*
X155700000Y-79000000D03*
X154600000Y-79000000D03*
X153500000Y-79000000D03*
X152400000Y-79000000D03*
X151300000Y-79000000D03*
X150200000Y-79000000D03*
X149100000Y-79000000D03*
D12*
X160475000Y-81600000D03*
X146725000Y-81600000D03*
X146725000Y-73300000D03*
X160475000Y-73300000D03*
%TD*%
D13*
%TO.C,R35*%
X178500000Y-134175000D03*
X178500000Y-135825000D03*
%TD*%
D14*
%TO.C,D13*%
X149700000Y-132812500D03*
X147800000Y-132812500D03*
X148750000Y-134687500D03*
%TD*%
D15*
%TO.C,R28*%
X149575000Y-126750000D03*
X147925000Y-126750000D03*
%TD*%
D16*
%TO.C,C31*%
X178458035Y-78100000D03*
X176558035Y-78100000D03*
%TD*%
D17*
%TO.C,C2*%
X176025000Y-113650000D03*
X177575000Y-113650000D03*
%TD*%
D18*
%TO.C,F7*%
X116400000Y-128750000D03*
X113600000Y-128750000D03*
%TD*%
D14*
%TO.C,Q9*%
X149700000Y-128812500D03*
X147800000Y-128812500D03*
X148750000Y-130687500D03*
%TD*%
D19*
%TO.C,C8*%
X161475000Y-115150000D03*
X159925000Y-115150000D03*
%TD*%
%TO.C,C9*%
X167775000Y-108700000D03*
X166225000Y-108700000D03*
%TD*%
D15*
%TO.C,R4*%
X178025000Y-102950000D03*
X176375000Y-102950000D03*
%TD*%
D20*
%TO.C,C6*%
X172200000Y-120175000D03*
X172200000Y-121725000D03*
%TD*%
D17*
%TO.C,C15*%
X155625000Y-115500000D03*
X157175000Y-115500000D03*
%TD*%
D19*
%TO.C,C3*%
X161475000Y-116650000D03*
X159925000Y-116650000D03*
%TD*%
D15*
%TO.C,R42*%
X196575000Y-131750000D03*
X194925000Y-131750000D03*
%TD*%
D21*
%TO.C,L1*%
X172983035Y-83000000D03*
X179033035Y-83000000D03*
%TD*%
D22*
%TO.C,Y1*%
X157250000Y-113700000D03*
X157250000Y-111500000D03*
X155550000Y-111500000D03*
X155550000Y-113700000D03*
%TD*%
D23*
%TO.C,D14*%
X174050000Y-132437500D03*
X175950000Y-132437500D03*
X175000000Y-130562500D03*
%TD*%
D24*
%TO.C,R19*%
X140925000Y-136750000D03*
X142575000Y-136750000D03*
%TD*%
%TO.C,R22*%
X130425000Y-136750000D03*
X132075000Y-136750000D03*
%TD*%
%TO.C,R14*%
X107175000Y-83000000D03*
X108825000Y-83000000D03*
%TD*%
%TO.C,R27*%
X133925000Y-136750000D03*
X135575000Y-136750000D03*
%TD*%
D25*
%TO.C,J11*%
X127750000Y-144000000D03*
X131250000Y-144000000D03*
X134750000Y-144000000D03*
X138250000Y-144000000D03*
X141750000Y-144000000D03*
X145250000Y-144000000D03*
X148750000Y-144000000D03*
X152250000Y-144000000D03*
%TD*%
D20*
%TO.C,C29*%
X170508035Y-81450000D03*
X170508035Y-83000000D03*
%TD*%
D26*
%TO.C,U3*%
X133295000Y-78475000D03*
X134565000Y-78475000D03*
X135835000Y-78475000D03*
X137105000Y-78475000D03*
X137105000Y-73525000D03*
X135835000Y-73525000D03*
X134565000Y-73525000D03*
X133295000Y-73525000D03*
%TD*%
D24*
%TO.C,R3*%
X180075000Y-116900000D03*
X181725000Y-116900000D03*
%TD*%
D27*
%TO.C,SW2*%
X140000000Y-111925000D03*
X136000000Y-111925000D03*
X136000000Y-114075000D03*
X140000000Y-114075000D03*
%TD*%
D14*
%TO.C,D15*%
X139200000Y-132812500D03*
X137300000Y-132812500D03*
X138250000Y-134687500D03*
%TD*%
%TO.C,Q11*%
X153200000Y-128812500D03*
X151300000Y-128812500D03*
X152250000Y-130687500D03*
%TD*%
D24*
%TO.C,R2*%
X180075000Y-115300000D03*
X181725000Y-115300000D03*
%TD*%
D28*
%TO.C,U7*%
X127625000Y-114555000D03*
X127625000Y-115825000D03*
X127625000Y-117095000D03*
X127625000Y-118365000D03*
X127625000Y-119635000D03*
X127625000Y-120905000D03*
X127625000Y-122175000D03*
X127625000Y-123445000D03*
X132575000Y-123445000D03*
X132575000Y-122175000D03*
X132575000Y-120905000D03*
X132575000Y-119635000D03*
X132575000Y-118365000D03*
X132575000Y-117095000D03*
X132575000Y-115825000D03*
X132575000Y-114555000D03*
%TD*%
D29*
%TO.C,C27*%
X167533035Y-78100000D03*
X170483035Y-78100000D03*
%TD*%
D30*
%TO.C,C35*%
X178200000Y-92050001D03*
X178200000Y-93950001D03*
%TD*%
D25*
%TO.C,J8*%
X194000000Y-112250000D03*
X194000000Y-108750000D03*
X194000000Y-105250000D03*
X194000000Y-101750000D03*
X194000000Y-98250000D03*
X194000000Y-94750000D03*
X194000000Y-91250000D03*
X194000000Y-87750000D03*
%TD*%
D24*
%TO.C,R6*%
X159875000Y-113650000D03*
X161525000Y-113650000D03*
%TD*%
D31*
%TO.C,C10*%
X172600000Y-110025000D03*
X172600000Y-108475000D03*
%TD*%
D18*
%TO.C,F2*%
X116400000Y-111250000D03*
X113600000Y-111250000D03*
%TD*%
D32*
%TO.C,H1*%
X106697056Y-56697056D03*
X107400000Y-55000000D03*
X103302944Y-53302944D03*
X102600000Y-55000000D03*
X103302944Y-56697056D03*
D33*
X105000000Y-55000000D03*
D32*
X105000000Y-57400000D03*
X105000000Y-52600000D03*
X106697056Y-53302944D03*
%TD*%
D14*
%TO.C,D16*%
X153200000Y-132812500D03*
X151300000Y-132812500D03*
X152250000Y-134687500D03*
%TD*%
D13*
%TO.C,R20*%
X165000000Y-134175000D03*
X165000000Y-135825000D03*
%TD*%
D15*
%TO.C,R37*%
X183825000Y-79000000D03*
X182175000Y-79000000D03*
%TD*%
D34*
%TO.C,RN2*%
X110800000Y-80900000D03*
D35*
X111600000Y-80900000D03*
X112400000Y-80900000D03*
D34*
X113200000Y-80900000D03*
X113200000Y-79100000D03*
D35*
X112400000Y-79100000D03*
X111600000Y-79100000D03*
D34*
X110800000Y-79100000D03*
%TD*%
D15*
%TO.C,R33*%
X153075000Y-126750000D03*
X151425000Y-126750000D03*
%TD*%
D19*
%TO.C,C14*%
X157175000Y-109700000D03*
X155625000Y-109700000D03*
%TD*%
D25*
%TO.C,J7*%
X139750000Y-56000000D03*
X136250000Y-56000000D03*
%TD*%
D14*
%TO.C,Q4*%
X128700000Y-128812500D03*
X126800000Y-128812500D03*
X127750000Y-130687500D03*
%TD*%
D24*
%TO.C,R7*%
X132775000Y-86200000D03*
X134425000Y-86200000D03*
%TD*%
D15*
%TO.C,R40*%
X172125000Y-90900000D03*
X170475000Y-90900000D03*
%TD*%
%TO.C,R23*%
X146075000Y-126750000D03*
X144425000Y-126750000D03*
%TD*%
D25*
%TO.C,J3*%
X166750000Y-56000000D03*
X163250000Y-56000000D03*
%TD*%
D36*
%TO.C,C23*%
X190950000Y-71000000D03*
X197050000Y-71000000D03*
%TD*%
D14*
%TO.C,Q5*%
X142700000Y-128812500D03*
X140800000Y-128812500D03*
X141750000Y-130687500D03*
%TD*%
D24*
%TO.C,R41*%
X191425000Y-131750000D03*
X193075000Y-131750000D03*
%TD*%
%TO.C,R39*%
X170475000Y-92500000D03*
X172125000Y-92500000D03*
%TD*%
D25*
%TO.C,J6*%
X130750000Y-56000000D03*
X127250000Y-56000000D03*
%TD*%
D36*
%TO.C,C24*%
X190950000Y-80000000D03*
X197050000Y-80000000D03*
%TD*%
D15*
%TO.C,R16*%
X128575000Y-126750000D03*
X126925000Y-126750000D03*
%TD*%
D24*
%TO.C,R17*%
X126925000Y-136750000D03*
X128575000Y-136750000D03*
%TD*%
D34*
%TO.C,RN1*%
X102800000Y-80900000D03*
D35*
X103600000Y-80900000D03*
X104400000Y-80900000D03*
D34*
X105200000Y-80900000D03*
X105200000Y-79100000D03*
D35*
X104400000Y-79100000D03*
X103600000Y-79100000D03*
D34*
X102800000Y-79100000D03*
%TD*%
D24*
%TO.C,R10*%
X135975000Y-86200000D03*
X137625000Y-86200000D03*
%TD*%
D18*
%TO.C,F5*%
X116400000Y-121750000D03*
X113600000Y-121750000D03*
%TD*%
D37*
%TO.C,Y2*%
X124300000Y-83750000D03*
X126500000Y-83750000D03*
X126500000Y-82050000D03*
X124300000Y-82050000D03*
%TD*%
D16*
%TO.C,C26*%
X180550000Y-68500000D03*
X178650000Y-68500000D03*
%TD*%
D26*
%TO.C,U5*%
X140295000Y-78475000D03*
X141565000Y-78475000D03*
X142835000Y-78475000D03*
X144105000Y-78475000D03*
X144105000Y-73525000D03*
X142835000Y-73525000D03*
X141565000Y-73525000D03*
X140295000Y-73525000D03*
%TD*%
D20*
%TO.C,C32*%
X162600000Y-83000000D03*
X162600000Y-84550000D03*
%TD*%
%TO.C,C17*%
X122500000Y-82125000D03*
X122500000Y-83675000D03*
%TD*%
D14*
%TO.C,D17*%
X179950000Y-130562500D03*
X178050000Y-130562500D03*
X179000000Y-132437500D03*
%TD*%
D25*
%TO.C,J4*%
X176750000Y-56000000D03*
X173250000Y-56000000D03*
%TD*%
D31*
%TO.C,C16*%
X128300000Y-83675000D03*
X128300000Y-82125000D03*
%TD*%
D13*
%TO.C,R25*%
X168000000Y-134175000D03*
X168000000Y-135825000D03*
%TD*%
D20*
%TO.C,C34*%
X172100000Y-94075000D03*
X172100000Y-95625000D03*
%TD*%
D24*
%TO.C,R5*%
X180375000Y-102950000D03*
X182025000Y-102950000D03*
%TD*%
D38*
%TO.C,C22*%
X189050000Y-62000000D03*
X190950000Y-62000000D03*
%TD*%
D14*
%TO.C,Q2*%
X108950000Y-79062500D03*
X107050000Y-79062500D03*
X108000000Y-80937500D03*
%TD*%
D39*
%TO.C,J1*%
X149540000Y-113050000D03*
X149540000Y-116950000D03*
X148270000Y-113050000D03*
X148270000Y-116950000D03*
X147000000Y-113050000D03*
X147000000Y-116950000D03*
X145730000Y-113050000D03*
X145730000Y-116950000D03*
X144460000Y-113050000D03*
X144460000Y-116950000D03*
%TD*%
D14*
%TO.C,D9*%
X132200000Y-132812500D03*
X130300000Y-132812500D03*
X131250000Y-134687500D03*
%TD*%
D16*
%TO.C,C30*%
X178458035Y-87900000D03*
X176558035Y-87900000D03*
%TD*%
D19*
%TO.C,C21*%
X132175000Y-112900000D03*
X130625000Y-112900000D03*
%TD*%
D29*
%TO.C,C28*%
X167525000Y-87900000D03*
X170475000Y-87900000D03*
%TD*%
D32*
%TO.C,H2*%
X193302944Y-56697056D03*
D33*
X195000000Y-55000000D03*
D32*
X195000000Y-57400000D03*
X196697056Y-53302944D03*
X197400000Y-55000000D03*
X195000000Y-52600000D03*
X192600000Y-55000000D03*
X196697056Y-56697056D03*
X193302944Y-53302944D03*
%TD*%
D40*
%TO.C,U10*%
X176100000Y-93950000D03*
X176100000Y-93000000D03*
X176100000Y-92050000D03*
X173900000Y-92050000D03*
X173900000Y-93000000D03*
X173900000Y-93950000D03*
%TD*%
D41*
%TO.C,L2*%
X173950000Y-97700000D03*
X177550000Y-97700000D03*
%TD*%
D42*
%TO.C,D18*%
X157000000Y-128850000D03*
X157000000Y-133150000D03*
%TD*%
D43*
%TO.C,C36*%
X180500000Y-96650000D03*
X180500000Y-94750000D03*
%TD*%
D14*
%TO.C,D6*%
X128700000Y-132812500D03*
X126800000Y-132812500D03*
X127750000Y-134687500D03*
%TD*%
D13*
%TO.C,R11*%
X125200000Y-85475000D03*
X125200000Y-87125000D03*
%TD*%
D25*
%TO.C,J9*%
X106000000Y-107750000D03*
X106000000Y-111250000D03*
X106000000Y-114750000D03*
X106000000Y-118250000D03*
X106000000Y-121750000D03*
X106000000Y-125250000D03*
X106000000Y-128750000D03*
X106000000Y-132250000D03*
%TD*%
D32*
%TO.C,H3*%
X142600000Y-95000000D03*
X147400000Y-95000000D03*
X145000000Y-97400000D03*
X143302944Y-93302944D03*
X143302944Y-96697056D03*
D33*
X145000000Y-95000000D03*
D32*
X146697056Y-93302944D03*
X146697056Y-96697056D03*
X145000000Y-92600000D03*
%TD*%
D20*
%TO.C,C12*%
X173700000Y-120175000D03*
X173700000Y-121725000D03*
%TD*%
D15*
%TO.C,R8*%
X134425000Y-80600000D03*
X132775000Y-80600000D03*
%TD*%
D31*
%TO.C,C13*%
X183700000Y-104550000D03*
X183700000Y-103000000D03*
%TD*%
D44*
%TO.C,RV1*%
X188537500Y-59500000D03*
X191462500Y-59500000D03*
%TD*%
D45*
%TO.C,U8*%
X124975000Y-120945000D03*
X124975000Y-119675000D03*
X124975000Y-118405000D03*
X124975000Y-117135000D03*
X124975000Y-115865000D03*
X124975000Y-114595000D03*
X124975000Y-113325000D03*
X124975000Y-112055000D03*
X120025000Y-112055000D03*
X120025000Y-113325000D03*
X120025000Y-114595000D03*
X120025000Y-115865000D03*
X120025000Y-117135000D03*
X120025000Y-118405000D03*
X120025000Y-119675000D03*
X120025000Y-120945000D03*
%TD*%
D31*
%TO.C,C18*%
X134850000Y-99125000D03*
X134850000Y-97575000D03*
%TD*%
D46*
%TO.C,JP9*%
X115725000Y-132250000D03*
D47*
X114275000Y-132250000D03*
%TD*%
D48*
%TO.C,U6*%
X103000000Y-61650000D03*
X103000000Y-64190000D03*
X103000000Y-66730000D03*
X103000000Y-69270000D03*
X103000000Y-71810000D03*
X103000000Y-74350000D03*
X115000000Y-74350000D03*
X115000000Y-71810000D03*
X115000000Y-69270000D03*
X115000000Y-66730000D03*
X115000000Y-64190000D03*
%TD*%
D19*
%TO.C,C20*%
X140175000Y-71500000D03*
X138625000Y-71500000D03*
%TD*%
D18*
%TO.C,F3*%
X116400000Y-114750000D03*
X113600000Y-114750000D03*
%TD*%
D20*
%TO.C,C7*%
X167800000Y-120718224D03*
X167800000Y-122268224D03*
%TD*%
D15*
%TO.C,R26*%
X135575000Y-126750000D03*
X133925000Y-126750000D03*
%TD*%
D49*
%TO.C,SW3*%
X104555000Y-101510000D03*
X105825000Y-101510000D03*
X107095000Y-101510000D03*
X108365000Y-101510000D03*
X109635000Y-101510000D03*
X110905000Y-101510000D03*
X112175000Y-101510000D03*
X113445000Y-101510000D03*
X113445000Y-93890000D03*
X112175000Y-93890000D03*
X110905000Y-93890000D03*
X109635000Y-93890000D03*
X108365000Y-93890000D03*
X107095000Y-93890000D03*
X105825000Y-93890000D03*
X104555000Y-93890000D03*
%TD*%
D23*
%TO.C,Q13*%
X181750000Y-64937500D03*
X183650000Y-64937500D03*
X182700000Y-63062500D03*
%TD*%
D14*
%TO.C,D12*%
X135700000Y-132812500D03*
X133800000Y-132812500D03*
X134750000Y-134687500D03*
%TD*%
D24*
%TO.C,R9*%
X135975000Y-83400000D03*
X137625000Y-83400000D03*
%TD*%
D50*
%TO.C,D3*%
X126462500Y-76750000D03*
X126462500Y-78650000D03*
X128337500Y-77700000D03*
%TD*%
D17*
%TO.C,C19*%
X136025000Y-80600000D03*
X137575000Y-80600000D03*
%TD*%
D51*
%TO.C,D20*%
X184650000Y-72500000D03*
X181350000Y-72500000D03*
%TD*%
D52*
%TO.C,D21*%
X180850000Y-58800000D03*
X185150000Y-58800000D03*
%TD*%
D14*
%TO.C,D10*%
X146200000Y-132812500D03*
X144300000Y-132812500D03*
X145250000Y-134687500D03*
%TD*%
D17*
%TO.C,C4*%
X176025000Y-118650000D03*
X177575000Y-118650000D03*
%TD*%
D53*
%TO.C,J10*%
X194000000Y-122250000D03*
D54*
X194000000Y-129750000D03*
D55*
X193150000Y-128750000D03*
X193150000Y-128250000D03*
X193150000Y-127750000D03*
X193150000Y-127250000D03*
X193150000Y-126750000D03*
X193150000Y-126250000D03*
X193150000Y-125750000D03*
X193150000Y-125250000D03*
X193150000Y-124750000D03*
X193150000Y-124250000D03*
X193150000Y-123750000D03*
X193150000Y-123250000D03*
X194850000Y-123250000D03*
X194850000Y-123750000D03*
X194850000Y-124250000D03*
X194850000Y-124750000D03*
X194850000Y-125250000D03*
X194850000Y-125750000D03*
X194850000Y-126250000D03*
X194850000Y-126750000D03*
X194850000Y-127250000D03*
X194850000Y-127750000D03*
X194850000Y-128250000D03*
X194850000Y-128750000D03*
D56*
X196150000Y-128400000D03*
X191850000Y-123600000D03*
D57*
X193000000Y-122200000D03*
D58*
X195000000Y-122200000D03*
D57*
X195000000Y-129800000D03*
D56*
X191850000Y-128400000D03*
X196150000Y-123600000D03*
D58*
X193000000Y-129800000D03*
%TD*%
D17*
%TO.C,C1*%
X176025000Y-117150000D03*
X177575000Y-117150000D03*
%TD*%
D13*
%TO.C,R30*%
X175500000Y-134175000D03*
X175500000Y-135825000D03*
%TD*%
D18*
%TO.C,F6*%
X116400000Y-125250000D03*
X113600000Y-125250000D03*
%TD*%
%TO.C,F4*%
X116400000Y-118250000D03*
X113600000Y-118250000D03*
%TD*%
D14*
%TO.C,Q6*%
X132200000Y-128812500D03*
X130300000Y-128812500D03*
X131250000Y-130687500D03*
%TD*%
%TO.C,Q3*%
X108950000Y-85062500D03*
X107050000Y-85062500D03*
X108000000Y-86937500D03*
%TD*%
D15*
%TO.C,R18*%
X142575000Y-126750000D03*
X140925000Y-126750000D03*
%TD*%
%TO.C,R38*%
X180425000Y-70300000D03*
X178775000Y-70300000D03*
%TD*%
D13*
%TO.C,R36*%
X180100000Y-63275000D03*
X180100000Y-64925000D03*
%TD*%
D43*
%TO.C,C37*%
X182600000Y-96650000D03*
X182600000Y-94750000D03*
%TD*%
D28*
%TO.C,U1*%
X176725000Y-104545000D03*
X176725000Y-105815000D03*
X176725000Y-107085000D03*
X176725000Y-108355000D03*
X181675000Y-108355000D03*
X181675000Y-107085000D03*
X181675000Y-105815000D03*
X181675000Y-104545000D03*
%TD*%
D24*
%TO.C,R32*%
X137425000Y-136750000D03*
X139075000Y-136750000D03*
%TD*%
%TO.C,R13*%
X107175000Y-77000000D03*
X108825000Y-77000000D03*
%TD*%
D59*
%TO.C,R15*%
X119000000Y-61825000D03*
X119000000Y-60175000D03*
%TD*%
D60*
%TO.C,D22*%
X178000000Y-63350000D03*
X178000000Y-66650000D03*
%TD*%
D61*
%TO.C,F8*%
X181300000Y-53100000D03*
D62*
X181915000Y-53100000D03*
D61*
X188300000Y-53100000D03*
D62*
X187685000Y-53100000D03*
%TD*%
D14*
%TO.C,Q7*%
X146200000Y-128812500D03*
X144300000Y-128812500D03*
X145250000Y-130687500D03*
%TD*%
D23*
%TO.C,D8*%
X163550000Y-132437500D03*
X165450000Y-132437500D03*
X164500000Y-130562500D03*
%TD*%
D24*
%TO.C,R29*%
X147925000Y-136750000D03*
X149575000Y-136750000D03*
%TD*%
D15*
%TO.C,R31*%
X139075000Y-126750000D03*
X137425000Y-126750000D03*
%TD*%
D27*
%TO.C,SW4*%
X111000000Y-53575000D03*
X115000000Y-53575000D03*
X111000000Y-51425000D03*
X115000000Y-51425000D03*
%TD*%
D63*
%TO.C,Q12*%
X184525000Y-70000000D03*
X185175000Y-70000000D03*
X185825000Y-70000000D03*
X186475000Y-70000000D03*
X184525000Y-67600000D03*
X185175000Y-67600000D03*
X185825000Y-67600000D03*
X186475000Y-67600000D03*
%TD*%
D64*
%TO.C,J5*%
X123780000Y-56585000D03*
X152230000Y-56585000D03*
D65*
X126570000Y-59125000D03*
D66*
X127586000Y-60905000D03*
X128602000Y-59125000D03*
X129618000Y-60905000D03*
X130634000Y-59125000D03*
X131650000Y-60905000D03*
X132666000Y-59125000D03*
X133682000Y-60905000D03*
X142320000Y-59125000D03*
X143336000Y-60905000D03*
X144352000Y-59125000D03*
X145368000Y-60905000D03*
X146384000Y-59125000D03*
X147400000Y-60905000D03*
X148416000Y-59125000D03*
X149432000Y-60905000D03*
D67*
X154000000Y-60015000D03*
X122000000Y-60015000D03*
%TD*%
D52*
%TO.C,D19*%
X120350000Y-108750000D03*
X124650000Y-108750000D03*
%TD*%
D20*
%TO.C,C11*%
X175200000Y-120175000D03*
X175200000Y-121725000D03*
%TD*%
D14*
%TO.C,Q10*%
X139200000Y-128812500D03*
X137300000Y-128812500D03*
X138250000Y-130687500D03*
%TD*%
D17*
%TO.C,C5*%
X176025000Y-115150000D03*
X177575000Y-115150000D03*
%TD*%
D18*
%TO.C,F1*%
X116400000Y-107750000D03*
X113600000Y-107750000D03*
%TD*%
D16*
%TO.C,C25*%
X183950000Y-77000000D03*
X182050000Y-77000000D03*
%TD*%
D24*
%TO.C,R34*%
X151425000Y-136750000D03*
X153075000Y-136750000D03*
%TD*%
%TO.C,R24*%
X144425000Y-136750000D03*
X146075000Y-136750000D03*
%TD*%
D68*
%TO.C,SW1*%
X192925000Y-116000000D03*
X192925000Y-120000000D03*
X195075000Y-116000000D03*
X195075000Y-120000000D03*
%TD*%
D59*
%TO.C,R12*%
X117400000Y-61825000D03*
X117400000Y-60175000D03*
%TD*%
D20*
%TO.C,C33*%
X163508035Y-79900000D03*
X163508035Y-81450000D03*
%TD*%
D69*
%TO.C,U9*%
X168009307Y-81050000D03*
X167509307Y-81050000D03*
X167009307Y-81050000D03*
X166509307Y-81050000D03*
X166009307Y-81050000D03*
D70*
X165059307Y-82000000D03*
X165059307Y-82500000D03*
X165059307Y-83000000D03*
X165059307Y-83500000D03*
X165059307Y-84000000D03*
D69*
X166009307Y-84950000D03*
X166509307Y-84950000D03*
X167009307Y-84950000D03*
X167509307Y-84950000D03*
X168009307Y-84950000D03*
D70*
X168959307Y-84000000D03*
X168959307Y-83500000D03*
X168959307Y-83000000D03*
X168959307Y-82500000D03*
X168959307Y-82000000D03*
D71*
X167009307Y-83000000D03*
%TD*%
D14*
%TO.C,Q8*%
X135700000Y-128812500D03*
X133800000Y-128812500D03*
X134750000Y-130687500D03*
%TD*%
%TO.C,D11*%
X169450000Y-130562500D03*
X167550000Y-130562500D03*
X168500000Y-132437500D03*
%TD*%
%TO.C,D7*%
X142700000Y-132812500D03*
X140800000Y-132812500D03*
X141750000Y-134687500D03*
%TD*%
D13*
%TO.C,R1*%
X176700000Y-120125000D03*
X176700000Y-121775000D03*
%TD*%
D72*
%TO.C,D5*%
X112062500Y-55500000D03*
X113937500Y-55500000D03*
%TD*%
D73*
%TO.C,U4*%
X133080000Y-89850000D03*
X131810000Y-89850000D03*
X130540000Y-89850000D03*
X129270000Y-89850000D03*
X128000000Y-89850000D03*
X126730000Y-89850000D03*
X125460000Y-89850000D03*
X124190000Y-89850000D03*
X122920000Y-89850000D03*
X122920000Y-99150000D03*
X124190000Y-99150000D03*
X125460000Y-99150000D03*
X126730000Y-99150000D03*
X128000000Y-99150000D03*
X129270000Y-99150000D03*
X130540000Y-99150000D03*
X131810000Y-99150000D03*
X133080000Y-99150000D03*
%TD*%
D25*
%TO.C,J12*%
X157750000Y-144000000D03*
X161250000Y-144000000D03*
X164750000Y-144000000D03*
X168250000Y-144000000D03*
X171750000Y-144000000D03*
X175250000Y-144000000D03*
X178750000Y-144000000D03*
X182250000Y-144000000D03*
%TD*%
D32*
%TO.C,H4*%
X106697056Y-146697056D03*
X103302944Y-143302944D03*
X107400000Y-145000000D03*
X106697056Y-143302944D03*
X103302944Y-146697056D03*
X102600000Y-145000000D03*
D33*
X105000000Y-145000000D03*
D32*
X105000000Y-142600000D03*
X105000000Y-147400000D03*
%TD*%
D72*
%TO.C,D4*%
X112062500Y-58000000D03*
X113937500Y-58000000D03*
%TD*%
D15*
%TO.C,R21*%
X132075000Y-126750000D03*
X130425000Y-126750000D03*
%TD*%
D23*
%TO.C,Q1*%
X132650000Y-84337500D03*
X134550000Y-84337500D03*
X133600000Y-82462500D03*
%TD*%
D74*
%TO.C,U2*%
X171800000Y-111512500D03*
X171400000Y-111512500D03*
X171000000Y-111512500D03*
X170600000Y-111512500D03*
X170200000Y-111512500D03*
X169800000Y-111512500D03*
X169400000Y-111512500D03*
X169000000Y-111512500D03*
X168600000Y-111512500D03*
X168200000Y-111512500D03*
X167800000Y-111512500D03*
X167400000Y-111512500D03*
X167000000Y-111512500D03*
X166600000Y-111512500D03*
D75*
X165762500Y-112350000D03*
X165762500Y-112750000D03*
X165762500Y-113150000D03*
X165762500Y-113550000D03*
X165762500Y-113950000D03*
X165762500Y-114350000D03*
X165762500Y-114750000D03*
X165762500Y-115150000D03*
X165762500Y-115550000D03*
X165762500Y-115950000D03*
X165762500Y-116350000D03*
X165762500Y-116750000D03*
X165762500Y-117150000D03*
X165762500Y-117550000D03*
D74*
X166600000Y-118387500D03*
X167000000Y-118387500D03*
X167400000Y-118387500D03*
X167800000Y-118387500D03*
X168200000Y-118387500D03*
X168600000Y-118387500D03*
X169000000Y-118387500D03*
X169400000Y-118387500D03*
X169800000Y-118387500D03*
X170200000Y-118387500D03*
X170600000Y-118387500D03*
X171000000Y-118387500D03*
X171400000Y-118387500D03*
X171800000Y-118387500D03*
D75*
X172637500Y-117550000D03*
X172637500Y-117150000D03*
X172637500Y-116750000D03*
X172637500Y-116350000D03*
X172637500Y-115950000D03*
X172637500Y-115550000D03*
X172637500Y-115150000D03*
X172637500Y-114750000D03*
X172637500Y-114350000D03*
X172637500Y-113950000D03*
X172637500Y-113550000D03*
X172637500Y-113150000D03*
X172637500Y-112750000D03*
X172637500Y-112350000D03*
D76*
X169200000Y-114950000D03*
%TD*%
D32*
%TO.C,H5*%
X192600000Y-145000000D03*
X197400000Y-145000000D03*
X195000000Y-142600000D03*
X195000000Y-147400000D03*
X196697056Y-143302944D03*
X193302944Y-143302944D03*
D33*
X195000000Y-145000000D03*
D32*
X193302944Y-146697056D03*
X196697056Y-146697056D03*
%TD*%
M02*
