%TF.GenerationSoftware,KiCad,Pcbnew,6.0.4-6f826c9f35~116~ubuntu20.04.1*%
%TF.CreationDate,2022-04-05T11:11:21+02:00*%
%TF.ProjectId,canbrd,63616e62-7264-42e6-9b69-6361645f7063,1.1*%
%TF.SameCoordinates,Original*%
%TF.FileFunction,Soldermask,Bot*%
%TF.FilePolarity,Negative*%
%FSLAX46Y46*%
G04 Gerber Fmt 4.6, Leading zero omitted, Abs format (unit mm)*
G04 Created by KiCad (PCBNEW 6.0.4-6f826c9f35~116~ubuntu20.04.1) date 2022-04-05 11:11:21*
%MOMM*%
%LPD*%
G01*
G04 APERTURE LIST*
G04 Aperture macros list*
%AMFreePoly0*
4,1,6,1.000000,0.000000,0.500000,-0.750000,-0.500000,-0.750000,-0.500000,0.750000,0.500000,0.750000,1.000000,0.000000,1.000000,0.000000,$1*%
%AMFreePoly1*
4,1,6,0.500000,-0.750000,-0.650000,-0.750000,-0.150000,0.000000,-0.650000,0.750000,0.500000,0.750000,0.500000,-0.750000,0.500000,-0.750000,$1*%
G04 Aperture macros list end*
%ADD10C,2.400000*%
%ADD11C,0.800000*%
%ADD12C,6.400000*%
%ADD13O,0.580000X1.000000*%
%ADD14C,0.660000*%
%ADD15C,1.100000*%
%ADD16C,3.250000*%
%ADD17R,1.500000X1.500000*%
%ADD18C,1.500000*%
%ADD19C,2.300000*%
%ADD20FreePoly0,270.000000*%
%ADD21FreePoly1,270.000000*%
%ADD22R,1.500000X1.000000*%
%ADD23FreePoly0,90.000000*%
%ADD24FreePoly1,90.000000*%
G04 APERTURE END LIST*
D10*
%TO.C,J11*%
X127750000Y-144000000D03*
X131250000Y-144000000D03*
X134750000Y-144000000D03*
X138250000Y-144000000D03*
X141750000Y-144000000D03*
X145250000Y-144000000D03*
X148750000Y-144000000D03*
X152250000Y-144000000D03*
%TD*%
%TO.C,J8*%
X194000000Y-112250000D03*
X194000000Y-108750000D03*
X194000000Y-105250000D03*
X194000000Y-101750000D03*
X194000000Y-98250000D03*
X194000000Y-94750000D03*
X194000000Y-91250000D03*
X194000000Y-87750000D03*
%TD*%
D11*
%TO.C,H1*%
X106697056Y-56697056D03*
X107400000Y-55000000D03*
X103302944Y-53302944D03*
X102600000Y-55000000D03*
X103302944Y-56697056D03*
D12*
X105000000Y-55000000D03*
D11*
X105000000Y-57400000D03*
X105000000Y-52600000D03*
X106697056Y-53302944D03*
%TD*%
D10*
%TO.C,J7*%
X139750000Y-56000000D03*
X136250000Y-56000000D03*
%TD*%
%TO.C,J3*%
X166750000Y-56000000D03*
X163250000Y-56000000D03*
%TD*%
%TO.C,J6*%
X130750000Y-56000000D03*
X127250000Y-56000000D03*
%TD*%
%TO.C,J4*%
X176750000Y-56000000D03*
X173250000Y-56000000D03*
%TD*%
D11*
%TO.C,H2*%
X193302944Y-56697056D03*
D12*
X195000000Y-55000000D03*
D11*
X195000000Y-57400000D03*
X196697056Y-53302944D03*
X197400000Y-55000000D03*
X195000000Y-52600000D03*
X192600000Y-55000000D03*
X196697056Y-56697056D03*
X193302944Y-53302944D03*
%TD*%
D10*
%TO.C,J9*%
X106000000Y-107750000D03*
X106000000Y-111250000D03*
X106000000Y-114750000D03*
X106000000Y-118250000D03*
X106000000Y-121750000D03*
X106000000Y-125250000D03*
X106000000Y-128750000D03*
X106000000Y-132250000D03*
%TD*%
D11*
%TO.C,H3*%
X142600000Y-95000000D03*
X147400000Y-95000000D03*
X145000000Y-97400000D03*
X143302944Y-93302944D03*
X143302944Y-96697056D03*
D12*
X145000000Y-95000000D03*
D11*
X146697056Y-93302944D03*
X146697056Y-96697056D03*
X145000000Y-92600000D03*
%TD*%
D13*
%TO.C,J10*%
X194000000Y-122250000D03*
D14*
X194000000Y-129750000D03*
D15*
X196150000Y-128400000D03*
X191850000Y-123600000D03*
X191850000Y-128400000D03*
X196150000Y-123600000D03*
%TD*%
D16*
%TO.C,J5*%
X123780000Y-56585000D03*
X152230000Y-56585000D03*
D17*
X126570000Y-59125000D03*
D18*
X127586000Y-60905000D03*
X128602000Y-59125000D03*
X129618000Y-60905000D03*
X130634000Y-59125000D03*
X131650000Y-60905000D03*
X132666000Y-59125000D03*
X133682000Y-60905000D03*
X142320000Y-59125000D03*
X143336000Y-60905000D03*
X144352000Y-59125000D03*
X145368000Y-60905000D03*
X146384000Y-59125000D03*
X147400000Y-60905000D03*
X148416000Y-59125000D03*
X149432000Y-60905000D03*
D19*
X154000000Y-60015000D03*
X122000000Y-60015000D03*
%TD*%
D10*
%TO.C,J12*%
X157750000Y-144000000D03*
X161250000Y-144000000D03*
X164750000Y-144000000D03*
X168250000Y-144000000D03*
X171750000Y-144000000D03*
X175250000Y-144000000D03*
X178750000Y-144000000D03*
X182250000Y-144000000D03*
%TD*%
D11*
%TO.C,H4*%
X106697056Y-146697056D03*
X103302944Y-143302944D03*
X107400000Y-145000000D03*
X106697056Y-143302944D03*
X103302944Y-146697056D03*
X102600000Y-145000000D03*
D12*
X105000000Y-145000000D03*
D11*
X105000000Y-142600000D03*
X105000000Y-147400000D03*
%TD*%
%TO.C,H5*%
X192600000Y-145000000D03*
X197400000Y-145000000D03*
X195000000Y-142600000D03*
X195000000Y-147400000D03*
X196697056Y-143302944D03*
X193302944Y-143302944D03*
D12*
X195000000Y-145000000D03*
D11*
X193302944Y-146697056D03*
X196697056Y-146697056D03*
%TD*%
D20*
%TO.C,JP6*%
X168000000Y-134275000D03*
D21*
X168000000Y-135725000D03*
%TD*%
D20*
%TO.C,JP8*%
X178500000Y-134275000D03*
D21*
X178500000Y-135725000D03*
%TD*%
D20*
%TO.C,JP2*%
X128100000Y-72775000D03*
D21*
X128100000Y-74225000D03*
%TD*%
D20*
%TO.C,JP3*%
X139700000Y-72775000D03*
D21*
X139700000Y-74225000D03*
%TD*%
D20*
%TO.C,JP5*%
X165000000Y-134275000D03*
D21*
X165000000Y-135725000D03*
%TD*%
D22*
%TO.C,JP4*%
X130700000Y-74150000D03*
X130700000Y-72850000D03*
%TD*%
%TO.C,JP1*%
X142400000Y-74150000D03*
X142400000Y-72850000D03*
%TD*%
D20*
%TO.C,JP11*%
X159408035Y-83575000D03*
D21*
X159408035Y-85025000D03*
%TD*%
D23*
%TO.C,JP10*%
X162008035Y-85025000D03*
D24*
X162008035Y-83575000D03*
%TD*%
D20*
%TO.C,JP7*%
X175500000Y-134275000D03*
D21*
X175500000Y-135725000D03*
%TD*%
M02*
